HIERARCHY
ROOT Hips
{
	OFFSET 0.00000 0.00000 0.00000
	CHANNELS 6 Xposition Yposition Zposition Zrotation Yrotation Xrotation 
	JOINT LHipJoint
	{
		OFFSET 0 0 0
		CHANNELS 3 Zrotation Yrotation Xrotation
		JOINT LeftHip
		{
			OFFSET 1.44960 -1.75505 0.85172
			CHANNELS 3 Zrotation Yrotation Xrotation
			JOINT LeftKnee
			{
				OFFSET 2.40573 -6.60971 0.00000
				CHANNELS 3 Zrotation Yrotation Xrotation
				JOINT LeftAnkle
				{
					OFFSET 2.58773 -7.10974 0.00000
					CHANNELS 3 Zrotation Yrotation Xrotation
					JOINT LeftToe
					{
						OFFSET 0.18252 -0.50147 1.77316
						CHANNELS 3 Zrotation Yrotation Xrotation
						End Site
						{
							OFFSET 0.00000 -0.00000 0.92990
						}
					}
				}
			}
		}
	}
	JOINT RHipJoint
	{
		OFFSET 0 0 0
		CHANNELS 3 Zrotation Yrotation Xrotation
		JOINT RightHip
		{
			OFFSET -1.40744 -1.75505 0.85172
			CHANNELS 3 Zrotation Yrotation Xrotation
			JOINT RightKnee
			{
				OFFSET -2.43714 -6.69600 0.00000
				CHANNELS 3 Zrotation Yrotation Xrotation
				JOINT RightAnkle
				{
					OFFSET -2.51650 -6.91404 0.00000
					CHANNELS 3 Zrotation Yrotation Xrotation
					JOINT RightToe
					{
						OFFSET -0.25383 -0.69740 1.96384
						CHANNELS 3 Zrotation Yrotation Xrotation
						End Site
						{
							OFFSET -0.00000 -0.00000 1.04244
						}
					}
				}
			}
		}
	}
	JOINT lowerback
	{
		OFFSET 0 0 0
		CHANNELS 3 Zrotation Yrotation Xrotation
		JOINT Chest
		{
			OFFSET 0.00579 2.14458 -0.24367
			CHANNELS 3 Zrotation Yrotation Xrotation
			JOINT Chest2
			{
				OFFSET 0.05899 2.16316 -0.04515
				CHANNELS 3 Zrotation Yrotation Xrotation
				JOINT lowerneck
				{
					OFFSET 0 0 0
					CHANNELS 3 Zrotation Yrotation Xrotation
					JOINT Neck
					{
						OFFSET -0.01650 1.59577 0.24841
						CHANNELS 3 Zrotation Yrotation Xrotation
						JOINT Head
						{
							OFFSET -0.01016 1.63072 -0.17782
							CHANNELS 3 Zrotation Yrotation Xrotation
							End Site
							{
								OFFSET -0.00250 1.64111 -0.08717
							}
						}
					}
				}
				JOINT LeftCollar
				{
					OFFSET 0 0 0
					CHANNELS 3 Zrotation Yrotation Xrotation
					JOINT LeftShoulder
					{
						OFFSET 3.17745 0.95174 -0.45729
CHANNELS 3 Zrotation Xrotation Yrotation
						JOINT LeftElbow
						{
OFFSET 0 -4.934850 0.000000
CHANNELS 3 Zrotation Xrotation Yrotation
							JOINT LeftWrist
							{
OFFSET 0 -3.417190 -0.000000
CHANNELS 3 Zrotation Xrotation Yrotation
								JOINT lhand
								{
									OFFSET 0 0 0
CHANNELS 3 Zrotation Xrotation Yrotation
									JOINT LFingers
									{
OFFSET 0 -0.624100 -0.000000
CHANNELS 3 Zrotation Xrotation Yrotation
										End Site
										{
OFFSET 0 -0.503170 -0.000000
										}
									}
								}
								JOINT LThumb
								{
OFFSET 0 0.000000 0.000000
CHANNELS 3 Zrotation Xrotation Yrotation
									End Site
									{
OFFSET 0 -0.510850 0.510850
									}
								}
							}
						}
					}
				}
				JOINT RightCollar
				{
					OFFSET 0 0 0
					CHANNELS 3 Zrotation Yrotation Xrotation
					JOINT RightShoulder
					{
						OFFSET -2.87924 1.13038 -0.75204
CHANNELS 3 Zrotation Xrotation Yrotation
						JOINT RightElbow
						{
OFFSET 0 -5.220340 0.000000
CHANNELS 3 Zrotation Xrotation Yrotation
							JOINT RightWrist
							{
OFFSET 0 -3.418090 -0.000000
CHANNELS 3 Zrotation Xrotation Yrotation
								JOINT rhand
								{
									OFFSET 0 0 0
CHANNELS 3 Zrotation Xrotation Yrotation
									JOINT RFingers
									{
OFFSET 0 -0.775340 -0.000000
CHANNELS 3 Zrotation Xrotation Yrotation
										End Site
										{
OFFSET 0 -0.625100 -0.000000
										}
									}
								}
								JOINT RThumb
								{
OFFSET 0 0.000000 0.000000
CHANNELS 3 Zrotation Xrotation Yrotation
									End Site
									{
OFFSET 0 -0.634640 0.634640
									}
								}
							}
						}
					}
				}
			}
		}
	}
}
MOTION
Frames: 8
Frame Time: 0.008333333333333333
-2.179506 17.435837 10.353703 -3.547782 0.654485 8.560572 0.000000 0.000000 0.000000 -5.371856 -6.927843 -5.658880 0.639074 5.114352 14.235037 0.427189 4.604824 -14.902162 0.196467 -2.853829 -7.872064 0.000000 0.000000 0.000000 28.361297 0.912881 -7.537836 -0.600961 -4.962365 13.801272 -0.339000 -10.363603 -19.177931 -0.903752 -6.058117 16.953179 5.669581 -4.155850 2.327444 4.066380 -5.461482 2.046582 1.124332 -2.692502 0.681060 -4.765694 -4.642295 -13.028629 -5.762217 -4.196414 19.012222 -1.579597 -2.906831 8.045050 0.000000 0.000000 0.000000 4.491725 9.719409 -36.414479 27.877673 -39.003341 10.046616 -0.552345 -1.194662 -45.043899 0.000000 0.000000 0.000000 -7.125000 0.000000 0.000000 -54.032559 67.511051 32.853757 0.000000 0.000000 0.000000 -7.223128 15.560021 -5.392764 -7.524376 -12.778935 -0.843822 -13.388672 -1.673003 -10.980201 0.000000 0.000000 0.000000 7.125000 0.000000 0.000000 9.642328 18.787505 6.110201
-2.174570 17.436246 10.359674 -3.621626 -0.053377 8.628978 0.000000 0.000000 0.000000 -5.376104 -6.778136 -5.464173 0.635283 5.099515 14.192603 0.413316 4.906191 -14.943172 0.227243 -3.065843 -8.462414 0.000000 0.000000 0.000000 28.349076 0.909864 -7.511492 -0.593364 -4.931702 13.713901 -0.361404 -9.840696 -18.866740 -0.833746 -5.824196 16.275456 5.633372 -4.111587 2.304470 4.127994 -5.420005 2.239954 1.195234 -2.667063 0.904323 -5.045407 -4.689425 -13.252674 -5.339601 -4.260035 19.237585 -1.413889 -2.923268 8.177656 0.000000 0.000000 0.000000 4.356515 9.464003 -36.227316 27.691617 -38.830833 9.929720 -0.579266 -0.919604 -44.999693 0.000000 0.000000 0.000000 -7.125000 0.000000 0.000000 -53.969600 67.476711 32.767905 0.000000 0.000000 0.000000 -7.609111 15.560232 -5.070169 -7.490295 -12.723351 -0.836327 -13.272426 -1.442075 -10.792143 0.000000 0.000000 0.000000 7.125000 0.000000 0.000000 9.729207 18.983888 6.123284
-2.145511 17.444889 10.346538 -3.669383 -0.440973 8.924476 0.000000 0.000000 0.000000 -5.446657 -6.815589 -5.638471 0.634950 5.098213 14.188826 0.400091 5.251481 -15.035554 0.219207 -3.014215 -8.318332 0.000000 0.000000 0.000000 28.238282 0.327654 -8.116733 -0.592431 -4.927915 13.702930 -0.391616 -8.934480 -18.275630 -0.811940 -5.750147 16.061079 5.932601 -4.273922 2.396002 4.111202 -5.616584 2.161864 1.031754 -2.764802 0.739607 -5.139814 -4.565279 -13.518041 -5.257265 -4.044518 19.739121 -1.367730 -2.836968 8.400711 0.000000 0.000000 0.000000 4.320817 9.444616 -35.969042 27.430215 -38.586350 9.766293 -0.336018 -0.671618 -44.843116 0.000000 0.000000 0.000000 -7.125000 0.000000 0.000000 -53.455058 67.460052 32.367441 0.000000 0.000000 0.000000 -7.816327 15.664564 -4.784290 -7.623159 -12.940186 -0.865830 -12.890107 -0.709812 -10.309361 0.000000 0.000000 0.000000 7.125000 0.000000 0.000000 10.013072 19.491559 6.192829
-2.152361 17.440510 10.337170 -3.969750 -1.167451 9.010661 0.000000 0.000000 0.000000 -5.130198 -6.632861 -5.650672 0.638972 5.114163 14.234389 0.360720 5.792748 -14.948202 0.166269 -2.626901 -7.241765 0.000000 0.000000 0.000000 28.520221 1.211590 -7.950028 -0.597443 -4.948197 13.760995 -0.378897 -9.037982 -18.233127 -0.837228 -5.835132 16.307248 5.822976 -4.218485 2.443071 4.281073 -5.552242 2.287117 1.261391 -2.732688 0.871852 -5.295981 -4.532734 -13.791822 -5.366339 -3.891402 20.398498 -1.386461 -2.809339 8.679511 0.000000 0.000000 0.000000 4.236558 9.162113 -35.689984 27.191298 -38.360962 9.617603 0.154866 -0.220035 -44.891777 0.000000 0.000000 0.000000 -7.125000 0.000000 0.000000 -53.121724 67.642146 32.326034 0.000000 0.000000 0.000000 -8.181949 15.269920 -4.946062 -7.412355 -12.595816 -0.819177 -12.587703 -0.214855 -10.831283 0.000000 0.000000 0.000000 7.125000 0.000000 0.000000 10.208494 18.981825 6.435280
-2.141451 17.440659 10.326009 -3.958495 -1.611341 9.134981 0.000000 0.000000 0.000000 -5.194150 -6.727589 -5.650900 0.637202 5.107069 14.214217 0.361547 6.127980 -15.249262 0.205034 -2.914873 -8.041964 0.000000 0.000000 0.000000 28.441261 1.515143 -8.063021 -0.602026 -4.966810 13.813926 -0.374022 -8.992288 -18.130185 -0.858956 -5.910159 16.524033 5.739990 -4.230638 2.467302 4.338476 -5.569470 2.294285 1.367345 -2.743194 0.878808 -5.585762 -4.547892 -13.964214 -5.594369 -3.741917 21.276411 -1.427918 -2.813786 9.020743 0.000000 0.000000 0.000000 4.075348 9.001043 -35.453047 26.899722 -38.083357 9.437249 0.171355 0.106764 -44.949338 0.000000 0.000000 0.000000 -7.125000 0.000000 0.000000 -53.219498 67.682667 32.441275 0.000000 0.000000 0.000000 -8.491321 14.921408 -4.565466 -7.153438 -12.171380 -0.763746 -13.242649 -0.434914 -11.328232 0.000000 0.000000 0.000000 7.125000 0.000000 0.000000 9.736020 18.443970 6.245606
-2.122432 17.446542 10.310344 -3.861143 -1.915508 9.245163 0.000000 0.000000 0.000000 -5.392802 -6.722305 -5.663038 0.627089 5.067326 14.100651 0.339453 6.361630 -15.157821 0.213178 -2.972243 -8.201453 0.000000 0.000000 0.000000 28.222798 1.575572 -8.236376 -0.603818 -4.974120 13.834668 -0.370320 -8.837954 -17.930583 -0.836588 -5.834203 16.304287 5.658906 -4.305972 2.541488 4.356945 -5.663016 2.270282 1.439934 -2.792805 0.820409 -5.752514 -4.541049 -14.125565 -6.035341 -3.530928 22.279113 -1.559745 -2.810515 9.402143 0.000000 0.000000 0.000000 4.070636 8.766016 -35.406280 26.647318 -37.840764 9.281971 -0.188907 -0.255419 -44.968642 0.000000 0.000000 0.000000 -7.125000 0.000000 0.000000 -53.570068 67.581167 32.587463 0.000000 0.000000 0.000000 -8.675316 14.465844 -4.580050 -7.027286 -11.964187 -0.737346 -13.140116 0.338366 -11.833986 0.000000 0.000000 0.000000 7.125000 0.000000 0.000000 9.795547 17.939834 6.395953
-2.102088 17.451499 10.300167 -4.178184 -2.067349 9.244973 0.000000 0.000000 0.000000 -5.092633 -6.792286 -5.651850 0.641391 5.123603 14.261429 0.329752 6.358198 -15.021123 0.162784 -2.597557 -7.160432 0.000000 0.000000 0.000000 28.483213 1.499263 -8.186392 -0.585109 -4.897667 13.616900 -0.351248 -8.742398 -17.606809 -0.772331 -5.611394 15.660882 6.072906 -4.366259 2.637499 4.447583 -5.726184 2.265246 1.318557 -2.821138 0.731709 -5.866198 -4.582563 -14.150129 -6.600620 -3.370323 23.355094 -1.751545 -2.845143 9.787160 0.000000 0.000000 0.000000 4.081445 8.575351 -35.351546 26.466929 -37.666060 9.171487 -0.017936 -0.065936 -45.158104 0.000000 0.000000 0.000000 -7.125000 0.000000 0.000000 -53.793037 67.747446 32.938795 0.000000 0.000000 0.000000 -8.661717 14.030278 -4.615761 -7.001810 -11.922251 -0.732040 -13.113311 0.449862 -12.368049 0.000000 0.000000 0.000000 7.125000 0.000000 0.000000 9.802453 17.402841 6.518596
-2.083859 17.451016 10.281152 -4.031448 -2.422800 9.205042 0.000000 0.000000 0.000000 -5.350351 -6.747384 -5.568481 0.643607 5.132218 14.285938 0.348651 6.379648 -15.298203 0.124562 -2.274914 -6.266106 0.000000 0.000000 0.000000 28.227744 1.804352 -8.114943 -0.587144 -4.906060 13.640957 -0.342817 -8.794436 -17.559137 -0.770316 -5.603864 15.639486 5.812348 -4.346261 2.688904 4.476325 -5.706646 2.340760 1.489325 -2.813497 0.808732 -5.999585 -4.656095 -14.105114 -7.282877 -3.222072 24.340127 -1.983428 -2.900904 10.133163 0.000000 0.000000 0.000000 4.330294 8.208559 -36.059069 26.354506 -37.556530 9.102932 0.018999 -0.656635 -45.085182 0.000000 0.000000 0.000000 -7.125000 0.000000 0.000000 -53.617297 67.715985 32.772517 0.000000 0.000000 0.000000 -8.816170 13.220978 -4.362947 -6.833224 -11.644468 -0.697592 -13.375235 0.452266 -12.776161 0.000000 0.000000 0.000000 7.125000 0.000000 0.000000 9.614421 16.973715 6.481394
